<mxfile host="app.diagrams.net" modified="2024-01-11T18:06:57.525Z" agent="Mozilla/5.0 (Windows NT 10.0; Win64; x64) AppleWebKit/537.36 (KHTML, like Gecko) Chrome/120.0.0.0 Safari/537.36 OPR/106.0.0.0" etag="qmJ_j-vUbg9gNr6tvpDb" version="22.1.18" type="github">
  <diagram name="DDD" id="5f0bae14-7c28-e335-631c-24af17079c00">
    <mxGraphModel dx="2400" dy="711" grid="1" gridSize="10" guides="1" tooltips="1" connect="1" arrows="1" fold="1" page="1" pageScale="1" pageWidth="1100" pageHeight="850" background="none" math="0" shadow="0">
      <root>
        <mxCell id="0" />
        <mxCell id="1" parent="0" />
        <mxCell id="24nU40d4KJQTveA55ApB-11" value="Is Taken out of" style="edgeStyle=orthogonalEdgeStyle;rounded=0;orthogonalLoop=1;jettySize=auto;html=1;" edge="1" parent="1" source="24nU40d4KJQTveA55ApB-1" target="24nU40d4KJQTveA55ApB-7">
          <mxGeometry relative="1" as="geometry" />
        </mxCell>
        <mxCell id="24nU40d4KJQTveA55ApB-1" value="Book" style="rounded=0;whiteSpace=wrap;html=1;" vertex="1" parent="1">
          <mxGeometry x="200" y="20" width="160" height="90" as="geometry" />
        </mxCell>
        <mxCell id="24nU40d4KJQTveA55ApB-5" value="Checkout" style="rounded=0;whiteSpace=wrap;html=1;" vertex="1" parent="1">
          <mxGeometry x="-120" y="260" width="160" height="100" as="geometry" />
        </mxCell>
        <mxCell id="24nU40d4KJQTveA55ApB-6" value="Return a book" style="rounded=0;whiteSpace=wrap;html=1;glass=0;" vertex="1" parent="1">
          <mxGeometry x="200" y="500" width="160" height="100" as="geometry" />
        </mxCell>
        <mxCell id="24nU40d4KJQTveA55ApB-12" style="edgeStyle=orthogonalEdgeStyle;rounded=0;orthogonalLoop=1;jettySize=auto;html=1;entryX=1;entryY=0.5;entryDx=0;entryDy=0;" edge="1" parent="1" source="24nU40d4KJQTveA55ApB-7" target="24nU40d4KJQTveA55ApB-5">
          <mxGeometry relative="1" as="geometry" />
        </mxCell>
        <mxCell id="24nU40d4KJQTveA55ApB-13" value="Through a" style="edgeLabel;html=1;align=center;verticalAlign=middle;resizable=0;points=[];" vertex="1" connectable="0" parent="24nU40d4KJQTveA55ApB-12">
          <mxGeometry x="0.2086" y="3" relative="1" as="geometry">
            <mxPoint x="18" y="17" as="offset" />
          </mxGeometry>
        </mxCell>
        <mxCell id="24nU40d4KJQTveA55ApB-7" value="Inventory" style="rounded=0;whiteSpace=wrap;html=1;" vertex="1" parent="1">
          <mxGeometry x="195" y="260" width="170" height="100" as="geometry" />
        </mxCell>
        <mxCell id="24nU40d4KJQTveA55ApB-10" value="Rents" style="edgeStyle=orthogonalEdgeStyle;rounded=0;orthogonalLoop=1;jettySize=auto;html=1;entryX=1;entryY=0.5;entryDx=0;entryDy=0;" edge="1" parent="1" source="24nU40d4KJQTveA55ApB-9" target="24nU40d4KJQTveA55ApB-1">
          <mxGeometry x="0.0476" y="-25" relative="1" as="geometry">
            <mxPoint as="offset" />
          </mxGeometry>
        </mxCell>
        <mxCell id="24nU40d4KJQTveA55ApB-9" value="Customer" style="rounded=0;whiteSpace=wrap;html=1;" vertex="1" parent="1">
          <mxGeometry x="550" y="140" width="170" height="100" as="geometry" />
        </mxCell>
      </root>
    </mxGraphModel>
  </diagram>
</mxfile>
